<svg width="36" height="100" viewBox="0 0 36 100" fill="none" xmlns="http://www.w3.org/2000/svg">
<path d="M0 0H36V100H0V0Z" fill="white" fill-opacity="0.6"/>
<path d="M5.47595 51.8613C5.7807 51.6173 6.19402 51.4802 6.625 51.4802H25.4523L18.4745 45.8954C18.3234 45.7744 18.2036 45.6308 18.1218 45.4727C18.04 45.3147 17.998 45.1453 17.998 44.9742C17.998 44.8031 18.04 44.6337 18.1218 44.4756C18.2036 44.3175 18.3234 44.1739 18.4745 44.0529C18.6256 43.9319 18.805 43.836 19.0024 43.7705C19.1998 43.705 19.4113 43.6713 19.625 43.6713C19.8387 43.6713 20.0503 43.705 20.2477 43.7705C20.4451 43.836 20.6244 43.9319 20.7755 44.0529L30.5255 51.8601C30.6769 51.981 30.7969 52.1246 30.8788 52.2827C30.9608 52.4407 31.0029 52.6102 31.0029 52.7814C31.0029 52.9525 30.9608 53.122 30.8788 53.2801C30.7969 53.4382 30.6769 53.5818 30.5255 53.7026L20.7755 61.5098C20.6244 61.6308 20.4451 61.7268 20.2477 61.7922C20.0503 61.8577 19.8387 61.8914 19.625 61.8914C19.4113 61.8914 19.1998 61.8577 19.0024 61.7922C18.805 61.7268 18.6256 61.6308 18.4745 61.5098C18.3234 61.3888 18.2036 61.2452 18.1218 61.0872C18.04 60.9291 17.998 60.7597 17.998 60.5886C17.998 60.4175 18.04 60.2481 18.1218 60.09C18.2036 59.9319 18.3234 59.7883 18.4745 59.6673L25.4523 54.0826H6.625C6.19402 54.0826 5.7807 53.9455 5.47595 53.7015C5.17121 53.4574 5 53.1265 5 52.7814C5 52.4363 5.17121 52.1053 5.47595 51.8613Z" fill="black" fill-opacity="0.55"/>
</svg>
